<svg width="42" height="42" viewBox="0 0 42 42" fill="none" xmlns="http://www.w3.org/2000/svg">
<path d="M21 3.5C18.7019 3.5 16.4262 3.95265 14.303 4.83211C12.1798 5.71157 10.2507 7.00061 8.62563 8.62563C5.34374 11.9075 3.5 16.3587 3.5 21C3.5 28.735 8.5225 35.2975 15.47 37.625C16.345 37.765 16.625 37.2225 16.625 36.75V33.7925C11.7775 34.8425 10.745 31.4475 10.745 31.4475C9.94 29.4175 8.8025 28.875 8.8025 28.875C7.21 27.79 8.925 27.825 8.925 27.825C10.675 27.9475 11.6025 29.6275 11.6025 29.6275C13.125 32.2875 15.6975 31.5 16.695 31.08C16.8525 29.9425 17.3075 29.1725 17.7975 28.735C13.9125 28.2975 9.835 26.7925 9.835 20.125C9.835 18.1825 10.5 16.625 11.6375 15.3825C11.4625 14.945 10.85 13.125 11.8125 10.7625C11.8125 10.7625 13.2825 10.29 16.625 12.5475C18.0075 12.1625 19.5125 11.97 21 11.97C22.4875 11.97 23.9925 12.1625 25.375 12.5475C28.7175 10.29 30.1875 10.7625 30.1875 10.7625C31.15 13.125 30.5375 14.945 30.3625 15.3825C31.5 16.625 32.165 18.1825 32.165 20.125C32.165 26.81 28.07 28.28 24.1675 28.7175C24.7975 29.26 25.375 30.3275 25.375 31.955V36.75C25.375 37.2225 25.655 37.7825 26.5475 37.625C33.495 35.28 38.5 28.735 38.5 21C38.5 18.7019 38.0474 16.4262 37.1679 14.303C36.2884 12.1798 34.9994 10.2507 33.3744 8.62563C31.7493 7.00061 29.8202 5.71157 27.697 4.83211C25.5738 3.95265 23.2981 3.5 21 3.5Z" fill="#EEF1EC"/>
</svg>
