<svg width="42" height="42" viewBox="0 0 42 42" fill="none" xmlns="http://www.w3.org/2000/svg">
<path d="M35.8225 3.49976H6.1775C5.84426 3.49513 5.51338 3.55619 5.20374 3.67945C4.8941 3.80272 4.61178 3.98577 4.3729 4.21815C4.13401 4.45054 3.94324 4.7277 3.81149 5.03382C3.67973 5.33994 3.60956 5.66902 3.605 6.00226V35.9973C3.60956 36.3305 3.67973 36.6596 3.81149 36.9657C3.94324 37.2718 4.13401 37.549 4.3729 37.7814C4.61178 38.0137 4.8941 38.1968 5.20374 38.3201C5.51338 38.4433 5.84426 38.5044 6.1775 38.4998H35.8225C36.1557 38.5044 36.4866 38.4433 36.7963 38.3201C37.1059 38.1968 37.3882 38.0137 37.6271 37.7814C37.866 37.549 38.0568 37.2718 38.1885 36.9657C38.3203 36.6596 38.3904 36.3305 38.395 35.9973V6.00226C38.3904 5.66902 38.3203 5.33994 38.1885 5.03382C38.0568 4.7277 37.866 4.45054 37.6271 4.21815C37.3882 3.98577 37.1059 3.80272 36.7963 3.67945C36.4866 3.55619 36.1557 3.49513 35.8225 3.49976ZM14.1575 32.7948H8.9075V17.0448H14.1575V32.7948ZM11.5325 14.8398C10.8085 14.8398 10.1141 14.5521 9.6021 14.0402C9.09012 13.5282 8.8025 12.8338 8.8025 12.1098C8.8025 11.3857 9.09012 10.6913 9.6021 10.1794C10.1141 9.66738 10.8085 9.37976 11.5325 9.37976C11.917 9.33615 12.3063 9.37425 12.675 9.49155C13.0438 9.60885 13.3835 9.80271 13.6721 10.0604C13.9608 10.3182 14.1917 10.6339 14.3498 10.9871C14.5079 11.3403 14.5896 11.7228 14.5896 12.1098C14.5896 12.4967 14.5079 12.8793 14.3498 13.2324C14.1917 13.5856 13.9608 13.9013 13.6721 14.1591C13.3835 14.4168 13.0438 14.6107 12.675 14.728C12.3063 14.8453 11.917 14.8834 11.5325 14.8398ZM33.0925 32.7948H27.8425V24.3423C27.8425 22.2248 27.09 20.8423 25.1825 20.8423C24.5922 20.8466 24.0173 21.0317 23.5355 21.3728C23.0536 21.7139 22.6878 22.1944 22.4875 22.7498C22.3506 23.1611 22.2912 23.5943 22.3125 24.0273V32.7773H17.0625V17.0273H22.3125V19.2498C22.7894 18.4222 23.4831 17.7404 24.3188 17.2779C25.1545 16.8153 26.1005 16.5895 27.055 16.6248C30.555 16.6248 33.0925 18.8823 33.0925 23.7298V32.7948Z" fill="#EEF1EC"/>
</svg>
